<?xml version="1.0" encoding="utf-8" standalone="no"?>
<!DOCTYPE svg PUBLIC "-//W3C//DTD SVG 1.1//EN"
  "http://www.w3.org/Graphics/SVG/1.1/DTD/svg11.dtd">
<svg xmlns:xlink="http://www.w3.org/1999/xlink" width="460.8pt" height="345.6pt" viewBox="0 0 460.8 345.6" xmlns="http://www.w3.org/2000/svg" version="1.1">
 <metadata>
  <rdf:RDF xmlns:dc="http://purl.org/dc/elements/1.1/" xmlns:cc="http://creativecommons.org/ns#" xmlns:rdf="http://www.w3.org/1999/02/22-rdf-syntax-ns#">
   <cc:Work>
    <dc:type rdf:resource="http://purl.org/dc/dcmitype/StillImage"/>
    <dc:date>2026-03-24T21:29:44.585968</dc:date>
    <dc:format>image/svg+xml</dc:format>
    <dc:creator>
     <cc:Agent>
      <dc:title>Matplotlib v3.10.0, https://matplotlib.org/</dc:title>
     </cc:Agent>
    </dc:creator>
   </cc:Work>
  </rdf:RDF>
 </metadata>
 <defs>
  <style type="text/css">*{stroke-linejoin: round; stroke-linecap: butt}</style>
 </defs>
 <g id="figure_1">
  <g id="patch_1">
   <path d="M 0 345.6 
L 460.8 345.6 
L 460.8 0 
L 0 0 
z
" style="fill: #ffffff"/>
  </g>
  <g id="axes_1">
   <g id="patch_2">
    <path d="M 57.6 307.584 
L 414.72 307.584 
L 414.72 41.472 
L 57.6 41.472 
z
" style="fill: #ffffff"/>
   </g>
   <g id="PathCollection_1">
    <defs>
     <path id="m53d2304c8b" d="M 0 3 
C 0.795609 3 1.55874 2.683901 2.12132 2.12132 
C 2.683901 1.55874 3 0.795609 3 0 
C 3 -0.795609 2.683901 -1.55874 2.12132 -2.12132 
C 1.55874 -2.683901 0.795609 -3 0 -3 
C -0.795609 -3 -1.55874 -2.683901 -2.12132 -2.12132 
C -2.683901 -1.55874 -3 -0.795609 -3 0 
C -3 0.795609 -2.683901 1.55874 -2.12132 2.12132 
C -1.55874 2.683901 -0.795609 3 0 3 
z
" style="stroke: #1f77b4"/>
    </defs>
    <g clip-path="url(#p2c13ec0bf8)">
     <use xlink:href="#m53d2304c8b" x="266.596364" y="82.978907" style="fill: #1f77b4; stroke: #1f77b4"/>
     <use xlink:href="#m53d2304c8b" x="170.214545" y="124.154177" style="fill: #1f77b4; stroke: #1f77b4"/>
     <use xlink:href="#m53d2304c8b" x="144.850909" y="124.154177" style="fill: #1f77b4; stroke: #1f77b4"/>
     <use xlink:href="#m53d2304c8b" x="220.941818" y="92.782543" style="fill: #1f77b4; stroke: #1f77b4"/>
     <use xlink:href="#m53d2304c8b" x="175.287273" y="131.997086" style="fill: #1f77b4; stroke: #1f77b4"/>
     <use xlink:href="#m53d2304c8b" x="261.523636" y="106.507633" style="fill: #1f77b4; stroke: #1f77b4"/>
     <use xlink:href="#m53d2304c8b" x="261.523636" y="112.389815" style="fill: #1f77b4; stroke: #1f77b4"/>
     <use xlink:href="#m53d2304c8b" x="226.014545" y="75.135999" style="fill: #1f77b4; stroke: #1f77b4"/>
     <use xlink:href="#m53d2304c8b" x="236.16" y="90.821816" style="fill: #1f77b4; stroke: #1f77b4"/>
     <use xlink:href="#m53d2304c8b" x="205.723636" y="104.546906" style="fill: #1f77b4; stroke: #1f77b4"/>
     <use xlink:href="#m53d2304c8b" x="231.087273" y="96.703997" style="fill: #1f77b4; stroke: #1f77b4"/>
     <use xlink:href="#m53d2304c8b" x="134.705455" y="124.154177" style="fill: #1f77b4; stroke: #1f77b4"/>
     <use xlink:href="#m53d2304c8b" x="200.650909" y="110.429087" style="fill: #1f77b4; stroke: #1f77b4"/>
     <use xlink:href="#m53d2304c8b" x="139.778182" y="120.232723" style="fill: #1f77b4; stroke: #1f77b4"/>
     <use xlink:href="#m53d2304c8b" x="205.723636" y="114.350542" style="fill: #1f77b4; stroke: #1f77b4"/>
     <use xlink:href="#m53d2304c8b" x="342.687273" y="73.175272" style="fill: #1f77b4; stroke: #1f77b4"/>
     <use xlink:href="#m53d2304c8b" x="190.505455" y="110.429087" style="fill: #1f77b4; stroke: #1f77b4"/>
     <use xlink:href="#m53d2304c8b" x="261.523636" y="53.568" style="fill: #1f77b4; stroke: #1f77b4"/>
     <use xlink:href="#m53d2304c8b" x="185.432727" y="96.703997" style="fill: #1f77b4; stroke: #1f77b4"/>
     <use xlink:href="#m53d2304c8b" x="185.432727" y="106.507633" style="fill: #1f77b4; stroke: #1f77b4"/>
     <use xlink:href="#m53d2304c8b" x="205.723636" y="96.703997" style="fill: #1f77b4; stroke: #1f77b4"/>
     <use xlink:href="#m53d2304c8b" x="210.796364" y="100.625452" style="fill: #1f77b4; stroke: #1f77b4"/>
     <use xlink:href="#m53d2304c8b" x="149.923636" y="104.546906" style="fill: #1f77b4; stroke: #1f77b4"/>
     <use xlink:href="#m53d2304c8b" x="129.632727" y="114.350542" style="fill: #1f77b4; stroke: #1f77b4"/>
     <use xlink:href="#m53d2304c8b" x="195.578182" y="108.46836" style="fill: #1f77b4; stroke: #1f77b4"/>
     <use xlink:href="#m53d2304c8b" x="170.214545" y="114.350542" style="fill: #1f77b4; stroke: #1f77b4"/>
     <use xlink:href="#m53d2304c8b" x="73.832727" y="131.997086" style="fill: #1f77b4; stroke: #1f77b4"/>
     <use xlink:href="#m53d2304c8b" x="388.341818" y="81.01818" style="fill: #1f77b4; stroke: #1f77b4"/>
     <use xlink:href="#m53d2304c8b" x="236.16" y="114.350542" style="fill: #1f77b4; stroke: #1f77b4"/>
     <use xlink:href="#m53d2304c8b" x="256.450909" y="90.821816" style="fill: #1f77b4; stroke: #1f77b4"/>
     <use xlink:href="#m53d2304c8b" x="276.741818" y="100.625452" style="fill: #1f77b4; stroke: #1f77b4"/>
     <use xlink:href="#m53d2304c8b" x="139.778182" y="118.271996" style="fill: #1f77b4; stroke: #1f77b4"/>
     <use xlink:href="#m53d2304c8b" x="220.941818" y="108.46836" style="fill: #1f77b4; stroke: #1f77b4"/>
     <use xlink:href="#m53d2304c8b" x="200.650909" y="94.74327" style="fill: #1f77b4; stroke: #1f77b4"/>
     <use xlink:href="#m53d2304c8b" x="160.069091" y="114.350542" style="fill: #1f77b4; stroke: #1f77b4"/>
     <use xlink:href="#m53d2304c8b" x="226.014545" y="98.664724" style="fill: #1f77b4; stroke: #1f77b4"/>
     <use xlink:href="#m53d2304c8b" x="322.396364" y="90.821816" style="fill: #1f77b4; stroke: #1f77b4"/>
     <use xlink:href="#m53d2304c8b" x="205.723636" y="73.175272" style="fill: #1f77b4; stroke: #1f77b4"/>
     <use xlink:href="#m53d2304c8b" x="149.923636" y="118.271996" style="fill: #1f77b4; stroke: #1f77b4"/>
     <use xlink:href="#m53d2304c8b" x="281.814545" y="90.821816" style="fill: #1f77b4; stroke: #1f77b4"/>
     <use xlink:href="#m53d2304c8b" x="195.578182" y="120.232723" style="fill: #1f77b4; stroke: #1f77b4"/>
     <use xlink:href="#m53d2304c8b" x="271.669091" y="81.01818" style="fill: #1f77b4; stroke: #1f77b4"/>
     <use xlink:href="#m53d2304c8b" x="307.178182" y="88.861089" style="fill: #1f77b4; stroke: #1f77b4"/>
     <use xlink:href="#m53d2304c8b" x="149.923636" y="126.114905" style="fill: #1f77b4; stroke: #1f77b4"/>
     <use xlink:href="#m53d2304c8b" x="246.305455" y="86.900362" style="fill: #1f77b4; stroke: #1f77b4"/>
     <use xlink:href="#m53d2304c8b" x="124.56" y="124.154177" style="fill: #1f77b4; stroke: #1f77b4"/>
     <use xlink:href="#m53d2304c8b" x="149.923636" y="98.664724" style="fill: #1f77b4; stroke: #1f77b4"/>
     <use xlink:href="#m53d2304c8b" x="256.450909" y="122.19345" style="fill: #1f77b4; stroke: #1f77b4"/>
     <use xlink:href="#m53d2304c8b" x="291.96" y="82.978907" style="fill: #1f77b4; stroke: #1f77b4"/>
     <use xlink:href="#m53d2304c8b" x="160.069091" y="116.311269" style="fill: #1f77b4; stroke: #1f77b4"/>
     <use xlink:href="#m53d2304c8b" x="251.378182" y="108.46836" style="fill: #1f77b4; stroke: #1f77b4"/>
     <use xlink:href="#m53d2304c8b" x="393.414545" y="77.096726" style="fill: #1f77b4; stroke: #1f77b4"/>
     <use xlink:href="#m53d2304c8b" x="200.650909" y="92.782543" style="fill: #1f77b4; stroke: #1f77b4"/>
     <use xlink:href="#m53d2304c8b" x="205.723636" y="94.74327" style="fill: #1f77b4; stroke: #1f77b4"/>
     <use xlink:href="#m53d2304c8b" x="210.796364" y="106.507633" style="fill: #1f77b4; stroke: #1f77b4"/>
     <use xlink:href="#m53d2304c8b" x="246.305455" y="81.01818" style="fill: #1f77b4; stroke: #1f77b4"/>
     <use xlink:href="#m53d2304c8b" x="256.450909" y="102.586179" style="fill: #1f77b4; stroke: #1f77b4"/>
     <use xlink:href="#m53d2304c8b" x="165.141818" y="100.625452" style="fill: #1f77b4; stroke: #1f77b4"/>
     <use xlink:href="#m53d2304c8b" x="220.941818" y="116.311269" style="fill: #1f77b4; stroke: #1f77b4"/>
     <use xlink:href="#m53d2304c8b" x="236.16" y="92.782543" style="fill: #1f77b4; stroke: #1f77b4"/>
     <use xlink:href="#m53d2304c8b" x="236.16" y="86.900362" style="fill: #1f77b4; stroke: #1f77b4"/>
     <use xlink:href="#m53d2304c8b" x="271.669091" y="100.625452" style="fill: #1f77b4; stroke: #1f77b4"/>
     <use xlink:href="#m53d2304c8b" x="368.050909" y="69.253817" style="fill: #1f77b4; stroke: #1f77b4"/>
     <use xlink:href="#m53d2304c8b" x="180.36" y="122.19345" style="fill: #1f77b4; stroke: #1f77b4"/>
     <use xlink:href="#m53d2304c8b" x="200.650909" y="116.311269" style="fill: #1f77b4; stroke: #1f77b4"/>
     <use xlink:href="#m53d2304c8b" x="200.650909" y="118.271996" style="fill: #1f77b4; stroke: #1f77b4"/>
     <use xlink:href="#m53d2304c8b" x="139.778182" y="130.036359" style="fill: #1f77b4; stroke: #1f77b4"/>
     <use xlink:href="#m53d2304c8b" x="281.814545" y="90.821816" style="fill: #1f77b4; stroke: #1f77b4"/>
     <use xlink:href="#m53d2304c8b" x="190.505455" y="96.703997" style="fill: #1f77b4; stroke: #1f77b4"/>
     <use xlink:href="#m53d2304c8b" x="210.796364" y="100.625452" style="fill: #1f77b4; stroke: #1f77b4"/>
     <use xlink:href="#m53d2304c8b" x="154.996364" y="116.311269" style="fill: #1f77b4; stroke: #1f77b4"/>
     <use xlink:href="#m53d2304c8b" x="160.069091" y="120.232723" style="fill: #1f77b4; stroke: #1f77b4"/>
     <use xlink:href="#m53d2304c8b" x="129.632727" y="114.350542" style="fill: #1f77b4; stroke: #1f77b4"/>
     <use xlink:href="#m53d2304c8b" x="129.632727" y="104.546906" style="fill: #1f77b4; stroke: #1f77b4"/>
     <use xlink:href="#m53d2304c8b" x="129.632727" y="126.114905" style="fill: #1f77b4; stroke: #1f77b4"/>
     <use xlink:href="#m53d2304c8b" x="195.578182" y="126.114905" style="fill: #1f77b4; stroke: #1f77b4"/>
     <use xlink:href="#m53d2304c8b" x="226.014545" y="82.978907" style="fill: #1f77b4; stroke: #1f77b4"/>
     <use xlink:href="#m53d2304c8b" x="226.014545" y="81.01818" style="fill: #1f77b4; stroke: #1f77b4"/>
     <use xlink:href="#m53d2304c8b" x="185.432727" y="116.311269" style="fill: #1f77b4; stroke: #1f77b4"/>
     <use xlink:href="#m53d2304c8b" x="154.996364" y="110.429087" style="fill: #1f77b4; stroke: #1f77b4"/>
     <use xlink:href="#m53d2304c8b" x="144.850909" y="108.46836" style="fill: #1f77b4; stroke: #1f77b4"/>
     <use xlink:href="#m53d2304c8b" x="180.36" y="112.389815" style="fill: #1f77b4; stroke: #1f77b4"/>
     <use xlink:href="#m53d2304c8b" x="160.069091" y="106.507633" style="fill: #1f77b4; stroke: #1f77b4"/>
     <use xlink:href="#m53d2304c8b" x="175.287273" y="82.978907" style="fill: #1f77b4; stroke: #1f77b4"/>
     <use xlink:href="#m53d2304c8b" x="190.505455" y="90.821816" style="fill: #1f77b4; stroke: #1f77b4"/>
     <use xlink:href="#m53d2304c8b" x="144.850909" y="116.311269" style="fill: #1f77b4; stroke: #1f77b4"/>
     <use xlink:href="#m53d2304c8b" x="165.141818" y="120.232723" style="fill: #1f77b4; stroke: #1f77b4"/>
     <use xlink:href="#m53d2304c8b" x="165.141818" y="122.19345" style="fill: #1f77b4; stroke: #1f77b4"/>
     <use xlink:href="#m53d2304c8b" x="231.087273" y="100.625452" style="fill: #1f77b4; stroke: #1f77b4"/>
     <use xlink:href="#m53d2304c8b" x="160.069091" y="124.154177" style="fill: #1f77b4; stroke: #1f77b4"/>
     <use xlink:href="#m53d2304c8b" x="302.105455" y="79.057453" style="fill: #1f77b4; stroke: #1f77b4"/>
     <use xlink:href="#m53d2304c8b" x="226.014545" y="86.900362" style="fill: #1f77b4; stroke: #1f77b4"/>
     <use xlink:href="#m53d2304c8b" x="322.396364" y="69.253817" style="fill: #1f77b4; stroke: #1f77b4"/>
     <use xlink:href="#m53d2304c8b" x="160.069091" y="116.311269" style="fill: #1f77b4; stroke: #1f77b4"/>
     <use xlink:href="#m53d2304c8b" x="398.487273" y="77.096726" style="fill: #1f77b4; stroke: #1f77b4"/>
     <use xlink:href="#m53d2304c8b" x="129.632727" y="108.46836" style="fill: #1f77b4; stroke: #1f77b4"/>
     <use xlink:href="#m53d2304c8b" x="139.778182" y="128.075632" style="fill: #1f77b4; stroke: #1f77b4"/>
     <use xlink:href="#m53d2304c8b" x="154.996364" y="135.91854" style="fill: #1f77b4; stroke: #1f77b4"/>
     <use xlink:href="#m53d2304c8b" x="154.996364" y="118.271996" style="fill: #1f77b4; stroke: #1f77b4"/>
     <use xlink:href="#m53d2304c8b" x="195.578182" y="90.821816" style="fill: #1f77b4; stroke: #1f77b4"/>
     <use xlink:href="#m53d2304c8b" x="114.414545" y="120.232723" style="fill: #1f77b4; stroke: #1f77b4"/>
     <use xlink:href="#m53d2304c8b" x="104.269091" y="120.232723" style="fill: #1f77b4; stroke: #1f77b4"/>
     <use xlink:href="#m53d2304c8b" x="190.505455" y="96.703997" style="fill: #1f77b4; stroke: #1f77b4"/>
     <use xlink:href="#m53d2304c8b" x="144.850909" y="118.271996" style="fill: #1f77b4; stroke: #1f77b4"/>
     <use xlink:href="#m53d2304c8b" x="139.778182" y="141.800722" style="fill: #1f77b4; stroke: #1f77b4"/>
     <use xlink:href="#m53d2304c8b" x="165.141818" y="112.389815" style="fill: #1f77b4; stroke: #1f77b4"/>
     <use xlink:href="#m53d2304c8b" x="200.650909" y="114.350542" style="fill: #1f77b4; stroke: #1f77b4"/>
     <use xlink:href="#m53d2304c8b" x="175.287273" y="114.350542" style="fill: #1f77b4; stroke: #1f77b4"/>
     <use xlink:href="#m53d2304c8b" x="302.105455" y="81.01818" style="fill: #1f77b4; stroke: #1f77b4"/>
     <use xlink:href="#m53d2304c8b" x="276.741818" y="88.861089" style="fill: #1f77b4; stroke: #1f77b4"/>
     <use xlink:href="#m53d2304c8b" x="154.996364" y="98.664724" style="fill: #1f77b4; stroke: #1f77b4"/>
     <use xlink:href="#m53d2304c8b" x="215.869091" y="88.861089" style="fill: #1f77b4; stroke: #1f77b4"/>
     <use xlink:href="#m53d2304c8b" x="261.523636" y="112.389815" style="fill: #1f77b4; stroke: #1f77b4"/>
     <use xlink:href="#m53d2304c8b" x="190.505455" y="110.429087" style="fill: #1f77b4; stroke: #1f77b4"/>
     <use xlink:href="#m53d2304c8b" x="297.032727" y="79.057453" style="fill: #1f77b4; stroke: #1f77b4"/>
     <use xlink:href="#m53d2304c8b" x="362.978182" y="79.057453" style="fill: #1f77b4; stroke: #1f77b4"/>
     <use xlink:href="#m53d2304c8b" x="256.450909" y="108.46836" style="fill: #1f77b4; stroke: #1f77b4"/>
     <use xlink:href="#m53d2304c8b" x="205.723636" y="90.821816" style="fill: #1f77b4; stroke: #1f77b4"/>
     <use xlink:href="#m53d2304c8b" x="271.669091" y="90.821816" style="fill: #1f77b4; stroke: #1f77b4"/>
     <use xlink:href="#m53d2304c8b" x="226.014545" y="112.389815" style="fill: #1f77b4; stroke: #1f77b4"/>
     <use xlink:href="#m53d2304c8b" x="220.941818" y="90.821816" style="fill: #1f77b4; stroke: #1f77b4"/>
     <use xlink:href="#m53d2304c8b" x="154.996364" y="116.311269" style="fill: #1f77b4; stroke: #1f77b4"/>
     <use xlink:href="#m53d2304c8b" x="215.869091" y="88.861089" style="fill: #1f77b4; stroke: #1f77b4"/>
     <use xlink:href="#m53d2304c8b" x="139.778182" y="108.46836" style="fill: #1f77b4; stroke: #1f77b4"/>
     <use xlink:href="#m53d2304c8b" x="114.414545" y="139.839995" style="fill: #1f77b4; stroke: #1f77b4"/>
     <use xlink:href="#m53d2304c8b" x="104.269091" y="131.997086" style="fill: #1f77b4; stroke: #1f77b4"/>
     <use xlink:href="#m53d2304c8b" x="220.941818" y="104.546906" style="fill: #1f77b4; stroke: #1f77b4"/>
     <use xlink:href="#m53d2304c8b" x="99.196364" y="131.997086" style="fill: #1f77b4; stroke: #1f77b4"/>
     <use xlink:href="#m53d2304c8b" x="190.505455" y="114.350542" style="fill: #1f77b4; stroke: #1f77b4"/>
     <use xlink:href="#m53d2304c8b" x="317.323636" y="77.096726" style="fill: #1f77b4; stroke: #1f77b4"/>
     <use xlink:href="#m53d2304c8b" x="160.069091" y="126.114905" style="fill: #1f77b4; stroke: #1f77b4"/>
     <use xlink:href="#m53d2304c8b" x="129.632727" y="149.64363" style="fill: #1f77b4; stroke: #1f77b4"/>
     <use xlink:href="#m53d2304c8b" x="297.032727" y="92.782543" style="fill: #1f77b4; stroke: #1f77b4"/>
     <use xlink:href="#m53d2304c8b" x="144.850909" y="122.19345" style="fill: #1f77b4; stroke: #1f77b4"/>
     <use xlink:href="#m53d2304c8b" x="200.650909" y="102.586179" style="fill: #1f77b4; stroke: #1f77b4"/>
     <use xlink:href="#m53d2304c8b" x="190.505455" y="112.389815" style="fill: #1f77b4; stroke: #1f77b4"/>
     <use xlink:href="#m53d2304c8b" x="332.541818" y="71.214544" style="fill: #1f77b4; stroke: #1f77b4"/>
     <use xlink:href="#m53d2304c8b" x="307.178182" y="65.332363" style="fill: #1f77b4; stroke: #1f77b4"/>
     <use xlink:href="#m53d2304c8b" x="210.796364" y="96.703997" style="fill: #1f77b4; stroke: #1f77b4"/>
     <use xlink:href="#m53d2304c8b" x="139.778182" y="120.232723" style="fill: #1f77b4; stroke: #1f77b4"/>
     <use xlink:href="#m53d2304c8b" x="144.850909" y="116.311269" style="fill: #1f77b4; stroke: #1f77b4"/>
     <use xlink:href="#m53d2304c8b" x="149.923636" y="94.74327" style="fill: #1f77b4; stroke: #1f77b4"/>
     <use xlink:href="#m53d2304c8b" x="200.650909" y="104.546906" style="fill: #1f77b4; stroke: #1f77b4"/>
     <use xlink:href="#m53d2304c8b" x="154.996364" y="126.114905" style="fill: #1f77b4; stroke: #1f77b4"/>
     <use xlink:href="#m53d2304c8b" x="154.996364" y="116.311269" style="fill: #1f77b4; stroke: #1f77b4"/>
     <use xlink:href="#m53d2304c8b" x="175.287273" y="131.997086" style="fill: #1f77b4; stroke: #1f77b4"/>
     <use xlink:href="#m53d2304c8b" x="231.087273" y="100.625452" style="fill: #1f77b4; stroke: #1f77b4"/>
     <use xlink:href="#m53d2304c8b" x="322.396364" y="79.057453" style="fill: #1f77b4; stroke: #1f77b4"/>
     <use xlink:href="#m53d2304c8b" x="165.141818" y="110.429087" style="fill: #1f77b4; stroke: #1f77b4"/>
     <use xlink:href="#m53d2304c8b" x="114.414545" y="122.19345" style="fill: #1f77b4; stroke: #1f77b4"/>
     <use xlink:href="#m53d2304c8b" x="114.414545" y="145.722176" style="fill: #1f77b4; stroke: #1f77b4"/>
     <use xlink:href="#m53d2304c8b" x="154.996364" y="122.19345" style="fill: #1f77b4; stroke: #1f77b4"/>
     <use xlink:href="#m53d2304c8b" x="119.487273" y="120.232723" style="fill: #1f77b4; stroke: #1f77b4"/>
     <use xlink:href="#m53d2304c8b" x="149.923636" y="108.46836" style="fill: #1f77b4; stroke: #1f77b4"/>
     <use xlink:href="#m53d2304c8b" x="226.014545" y="102.586179" style="fill: #1f77b4; stroke: #1f77b4"/>
     <use xlink:href="#m53d2304c8b" x="175.287273" y="106.507633" style="fill: #1f77b4; stroke: #1f77b4"/>
     <use xlink:href="#m53d2304c8b" x="170.214545" y="108.46836" style="fill: #1f77b4; stroke: #1f77b4"/>
     <use xlink:href="#m53d2304c8b" x="165.141818" y="112.389815" style="fill: #1f77b4; stroke: #1f77b4"/>
     <use xlink:href="#m53d2304c8b" x="134.705455" y="120.232723" style="fill: #1f77b4; stroke: #1f77b4"/>
     <use xlink:href="#m53d2304c8b" x="149.923636" y="124.154177" style="fill: #1f77b4; stroke: #1f77b4"/>
     <use xlink:href="#m53d2304c8b" x="144.850909" y="122.19345" style="fill: #1f77b4; stroke: #1f77b4"/>
     <use xlink:href="#m53d2304c8b" x="175.287273" y="102.586179" style="fill: #1f77b4; stroke: #1f77b4"/>
     <use xlink:href="#m53d2304c8b" x="160.069091" y="120.232723" style="fill: #1f77b4; stroke: #1f77b4"/>
     <use xlink:href="#m53d2304c8b" x="175.287273" y="128.075632" style="fill: #1f77b4; stroke: #1f77b4"/>
     <use xlink:href="#m53d2304c8b" x="195.578182" y="106.507633" style="fill: #1f77b4; stroke: #1f77b4"/>
     <use xlink:href="#m53d2304c8b" x="210.796364" y="114.350542" style="fill: #1f77b4; stroke: #1f77b4"/>
     <use xlink:href="#m53d2304c8b" x="362.978182" y="65.332363" style="fill: #1f77b4; stroke: #1f77b4"/>
     <use xlink:href="#m53d2304c8b" x="144.850909" y="130.036359" style="fill: #1f77b4; stroke: #1f77b4"/>
     <use xlink:href="#m53d2304c8b" x="261.523636" y="108.46836" style="fill: #1f77b4; stroke: #1f77b4"/>
     <use xlink:href="#m53d2304c8b" x="149.923636" y="120.232723" style="fill: #1f77b4; stroke: #1f77b4"/>
     <use xlink:href="#m53d2304c8b" x="185.432727" y="106.507633" style="fill: #1f77b4; stroke: #1f77b4"/>
     <use xlink:href="#m53d2304c8b" x="291.96" y="94.74327" style="fill: #1f77b4; stroke: #1f77b4"/>
     <use xlink:href="#m53d2304c8b" x="190.505455" y="110.429087" style="fill: #1f77b4; stroke: #1f77b4"/>
     <use xlink:href="#m53d2304c8b" x="236.16" y="90.821816" style="fill: #1f77b4; stroke: #1f77b4"/>
     <use xlink:href="#m53d2304c8b" x="180.36" y="98.664724" style="fill: #1f77b4; stroke: #1f77b4"/>
     <use xlink:href="#m53d2304c8b" x="210.796364" y="106.507633" style="fill: #1f77b4; stroke: #1f77b4"/>
     <use xlink:href="#m53d2304c8b" x="286.887273" y="90.821816" style="fill: #1f77b4; stroke: #1f77b4"/>
     <use xlink:href="#m53d2304c8b" x="220.941818" y="98.664724" style="fill: #1f77b4; stroke: #1f77b4"/>
     <use xlink:href="#m53d2304c8b" x="281.814545" y="94.74327" style="fill: #1f77b4; stroke: #1f77b4"/>
     <use xlink:href="#m53d2304c8b" x="94.123636" y="137.879268" style="fill: #1f77b4; stroke: #1f77b4"/>
     <use xlink:href="#m53d2304c8b" x="291.96" y="84.939634" style="fill: #1f77b4; stroke: #1f77b4"/>
     <use xlink:href="#m53d2304c8b" x="195.578182" y="116.311269" style="fill: #1f77b4; stroke: #1f77b4"/>
     <use xlink:href="#m53d2304c8b" x="231.087273" y="100.625452" style="fill: #1f77b4; stroke: #1f77b4"/>
     <use xlink:href="#m53d2304c8b" x="160.069091" y="122.19345" style="fill: #1f77b4; stroke: #1f77b4"/>
     <use xlink:href="#m53d2304c8b" x="180.36" y="102.586179" style="fill: #1f77b4; stroke: #1f77b4"/>
     <use xlink:href="#m53d2304c8b" x="170.214545" y="108.46836" style="fill: #1f77b4; stroke: #1f77b4"/>
     <use xlink:href="#m53d2304c8b" x="261.523636" y="81.01818" style="fill: #1f77b4; stroke: #1f77b4"/>
     <use xlink:href="#m53d2304c8b" x="129.632727" y="130.036359" style="fill: #1f77b4; stroke: #1f77b4"/>
     <use xlink:href="#m53d2304c8b" x="322.396364" y="77.096726" style="fill: #1f77b4; stroke: #1f77b4"/>
     <use xlink:href="#m53d2304c8b" x="327.469091" y="100.625452" style="fill: #1f77b4; stroke: #1f77b4"/>
     <use xlink:href="#m53d2304c8b" x="175.287273" y="118.271996" style="fill: #1f77b4; stroke: #1f77b4"/>
     <use xlink:href="#m53d2304c8b" x="134.705455" y="133.957813" style="fill: #1f77b4; stroke: #1f77b4"/>
     <use xlink:href="#m53d2304c8b" x="190.505455" y="118.271996" style="fill: #1f77b4; stroke: #1f77b4"/>
     <use xlink:href="#m53d2304c8b" x="251.378182" y="96.703997" style="fill: #1f77b4; stroke: #1f77b4"/>
     <use xlink:href="#m53d2304c8b" x="297.032727" y="86.900362" style="fill: #1f77b4; stroke: #1f77b4"/>
     <use xlink:href="#m53d2304c8b" x="286.887273" y="96.703997" style="fill: #1f77b4; stroke: #1f77b4"/>
     <use xlink:href="#m53d2304c8b" x="332.541818" y="84.939634" style="fill: #1f77b4; stroke: #1f77b4"/>
     <use xlink:href="#m53d2304c8b" x="276.741818" y="92.782543" style="fill: #1f77b4; stroke: #1f77b4"/>
    </g>
   </g>
   <g id="matplotlib.axis_1">
    <g id="xtick_1">
     <g id="line2d_1">
      <path d="M 78.905455 307.584 
L 78.905455 41.472 
" clip-path="url(#p2c13ec0bf8)" style="fill: none; stroke: #b0b0b0; stroke-width: 0.8; stroke-linecap: square"/>
     </g>
     <g id="line2d_2">
      <defs>
       <path id="m4989e07aba" d="M 0 0 
L 0 3.5 
" style="stroke: #000000; stroke-width: 0.8"/>
      </defs>
      <g>
       <use xlink:href="#m4989e07aba" x="78.905455" y="307.584" style="stroke: #000000; stroke-width: 0.8"/>
      </g>
     </g>
     <g id="text_1">
      <!-- 40 -->
      <g transform="translate(72.607017 322.074625) scale(0.1 -0.1)">
       <defs>
        <path id="IPAexGothic-34" d="M 3813 1159 
L 3059 1159 
L 3059 63 
L 2547 63 
L 2547 1159 
L 197 1159 
L 197 1672 
L 2456 4678 
L 3059 4678 
L 3059 1634 
L 3813 1634 
L 3813 1159 
z
M 2578 4109 
L 2559 4109 
Q 2278 3656 2003 3284 
L 759 1634 
L 2547 1634 
L 2547 3144 
Q 2547 3481 2578 4109 
z
" transform="scale(0.015625)"/>
        <path id="IPAexGothic-30" d="M 2038 4725 
Q 2881 4725 3334 3944 
Q 3694 3325 3694 2344 
Q 3694 1372 3334 741 
Q 2888 -31 2016 -31 
Q 1147 -31 700 741 
Q 341 1372 341 2350 
Q 341 3713 1000 4334 
Q 1419 4725 2038 4725 
z
M 2016 4266 
Q 1516 4266 1228 3759 
Q 934 3247 934 2344 
Q 934 1456 1222 947 
Q 1513 447 2016 447 
Q 2619 447 2909 1153 
Q 3100 1622 3100 2375 
Q 3100 3256 2806 3759 
Q 2509 4266 2016 4266 
z
" transform="scale(0.015625)"/>
       </defs>
       <use xlink:href="#IPAexGothic-34"/>
       <use xlink:href="#IPAexGothic-30" transform="translate(62.988281 0)"/>
      </g>
     </g>
    </g>
    <g id="xtick_2">
     <g id="line2d_3">
      <path d="M 129.632727 307.584 
L 129.632727 41.472 
" clip-path="url(#p2c13ec0bf8)" style="fill: none; stroke: #b0b0b0; stroke-width: 0.8; stroke-linecap: square"/>
     </g>
     <g id="line2d_4">
      <g>
       <use xlink:href="#m4989e07aba" x="129.632727" y="307.584" style="stroke: #000000; stroke-width: 0.8"/>
      </g>
     </g>
     <g id="text_2">
      <!-- 50 -->
      <g transform="translate(123.33429 322.074625) scale(0.1 -0.1)">
       <defs>
        <path id="IPAexGothic-35" d="M 1178 2603 
Q 1634 2963 2172 2963 
Q 2816 2963 3241 2528 
Q 3638 2113 3638 1497 
Q 3638 938 3297 513 
Q 2869 -31 2031 -31 
Q 959 -31 469 784 
L 938 1028 
Q 1309 434 2013 434 
Q 2466 434 2769 716 
Q 3081 1013 3081 1503 
Q 3081 1966 2806 2241 
Q 2519 2528 2056 2528 
Q 1406 2528 1072 2028 
L 591 2091 
L 884 4634 
L 3406 4634 
L 3406 4153 
L 1341 4153 
L 1134 2603 
L 1178 2603 
z
" transform="scale(0.015625)"/>
       </defs>
       <use xlink:href="#IPAexGothic-35"/>
       <use xlink:href="#IPAexGothic-30" transform="translate(62.988281 0)"/>
      </g>
     </g>
    </g>
    <g id="xtick_3">
     <g id="line2d_5">
      <path d="M 180.36 307.584 
L 180.36 41.472 
" clip-path="url(#p2c13ec0bf8)" style="fill: none; stroke: #b0b0b0; stroke-width: 0.8; stroke-linecap: square"/>
     </g>
     <g id="line2d_6">
      <g>
       <use xlink:href="#m4989e07aba" x="180.36" y="307.584" style="stroke: #000000; stroke-width: 0.8"/>
      </g>
     </g>
     <g id="text_3">
      <!-- 60 -->
      <g transform="translate(174.061562 322.074625) scale(0.1 -0.1)">
       <defs>
        <path id="IPAexGothic-36" d="M 1056 2328 
Q 1509 2981 2234 2981 
Q 2906 2981 3316 2513 
Q 3675 2106 3675 1522 
Q 3675 884 3272 434 
Q 2853 -31 2178 -31 
Q 1375 -31 922 581 
Q 481 1178 481 2228 
Q 481 3425 1013 4109 
Q 1494 4725 2272 4725 
Q 3191 4725 3609 4025 
L 3150 3775 
Q 2894 4266 2300 4266 
Q 1119 4266 1031 2328 
L 1056 2328 
z
M 2141 2547 
Q 1684 2547 1384 2206 
Q 1116 1900 1116 1541 
Q 1116 1156 1353 844 
Q 1672 428 2159 428 
Q 2669 428 2941 844 
Q 3125 1128 3125 1503 
Q 3125 1944 2881 2228 
Q 2600 2547 2141 2547 
z
" transform="scale(0.015625)"/>
       </defs>
       <use xlink:href="#IPAexGothic-36"/>
       <use xlink:href="#IPAexGothic-30" transform="translate(62.988281 0)"/>
      </g>
     </g>
    </g>
    <g id="xtick_4">
     <g id="line2d_7">
      <path d="M 231.087273 307.584 
L 231.087273 41.472 
" clip-path="url(#p2c13ec0bf8)" style="fill: none; stroke: #b0b0b0; stroke-width: 0.8; stroke-linecap: square"/>
     </g>
     <g id="line2d_8">
      <g>
       <use xlink:href="#m4989e07aba" x="231.087273" y="307.584" style="stroke: #000000; stroke-width: 0.8"/>
      </g>
     </g>
     <g id="text_4">
      <!-- 70 -->
      <g transform="translate(224.788835 322.074625) scale(0.1 -0.1)">
       <defs>
        <path id="IPAexGothic-37" d="M 3597 4263 
Q 2238 2106 1778 63 
L 1131 63 
Q 1581 1834 2950 4128 
L 428 4128 
L 428 4634 
L 3597 4634 
L 3597 4263 
z
" transform="scale(0.015625)"/>
       </defs>
       <use xlink:href="#IPAexGothic-37"/>
       <use xlink:href="#IPAexGothic-30" transform="translate(62.988281 0)"/>
      </g>
     </g>
    </g>
    <g id="xtick_5">
     <g id="line2d_9">
      <path d="M 281.814545 307.584 
L 281.814545 41.472 
" clip-path="url(#p2c13ec0bf8)" style="fill: none; stroke: #b0b0b0; stroke-width: 0.8; stroke-linecap: square"/>
     </g>
     <g id="line2d_10">
      <g>
       <use xlink:href="#m4989e07aba" x="281.814545" y="307.584" style="stroke: #000000; stroke-width: 0.8"/>
      </g>
     </g>
     <g id="text_5">
      <!-- 80 -->
      <g transform="translate(275.516108 322.074625) scale(0.1 -0.1)">
       <defs>
        <path id="IPAexGothic-38" d="M 2541 2425 
Q 3700 2031 3700 1197 
Q 3700 541 3100 197 
Q 2663 -56 2016 -56 
Q 1366 -56 928 197 
Q 347 531 347 1178 
Q 347 1988 1409 2381 
L 1409 2400 
Q 481 2734 481 3509 
Q 481 4100 981 4456 
Q 1406 4756 2019 4756 
Q 2703 4756 3131 4403 
Q 3553 4069 3553 3566 
Q 3553 2706 2541 2444 
L 2541 2425 
z
M 2022 2625 
Q 2997 2856 2997 3528 
Q 2997 3916 2675 4150 
Q 2413 4347 2016 4347 
Q 1606 4347 1331 4128 
Q 1050 3897 1050 3522 
Q 1050 3150 1350 2925 
Q 1494 2809 1722 2722 
Q 1984 2616 2022 2625 
z
M 1978 2209 
Q 922 1931 922 1216 
Q 922 775 1313 556 
Q 1606 391 2009 391 
Q 2575 391 2881 697 
Q 3106 922 3106 1250 
Q 3106 1594 2794 1850 
Q 2609 1994 2350 2100 
Q 2047 2222 1978 2209 
z
" transform="scale(0.015625)"/>
       </defs>
       <use xlink:href="#IPAexGothic-38"/>
       <use xlink:href="#IPAexGothic-30" transform="translate(62.988281 0)"/>
      </g>
     </g>
    </g>
    <g id="xtick_6">
     <g id="line2d_11">
      <path d="M 332.541818 307.584 
L 332.541818 41.472 
" clip-path="url(#p2c13ec0bf8)" style="fill: none; stroke: #b0b0b0; stroke-width: 0.8; stroke-linecap: square"/>
     </g>
     <g id="line2d_12">
      <g>
       <use xlink:href="#m4989e07aba" x="332.541818" y="307.584" style="stroke: #000000; stroke-width: 0.8"/>
      </g>
     </g>
     <g id="text_6">
      <!-- 90 -->
      <g transform="translate(326.243381 322.074625) scale(0.1 -0.1)">
       <defs>
        <path id="IPAexGothic-39" d="M 2984 2356 
Q 2544 1716 1813 1716 
Q 1253 1716 847 2056 
Q 366 2459 366 3163 
Q 366 3813 769 4266 
Q 1181 4725 1869 4725 
Q 2800 4725 3241 3950 
Q 3559 3378 3559 2472 
Q 3559 1250 3041 588 
Q 2553 -31 1769 -31 
Q 859 -31 391 703 
L 853 953 
Q 1156 428 1753 428 
Q 2922 428 3009 2356 
L 2984 2356 
z
M 1888 4278 
Q 1450 4278 1172 3950 
Q 922 3653 922 3200 
Q 922 2741 1159 2478 
Q 1434 2163 1906 2163 
Q 2431 2163 2728 2572 
Q 2925 2847 2925 3169 
Q 2925 3553 2694 3863 
Q 2375 4278 1888 4278 
z
" transform="scale(0.015625)"/>
       </defs>
       <use xlink:href="#IPAexGothic-39"/>
       <use xlink:href="#IPAexGothic-30" transform="translate(62.988281 0)"/>
      </g>
     </g>
    </g>
    <g id="xtick_7">
     <g id="line2d_13">
      <path d="M 383.269091 307.584 
L 383.269091 41.472 
" clip-path="url(#p2c13ec0bf8)" style="fill: none; stroke: #b0b0b0; stroke-width: 0.8; stroke-linecap: square"/>
     </g>
     <g id="line2d_14">
      <g>
       <use xlink:href="#m4989e07aba" x="383.269091" y="307.584" style="stroke: #000000; stroke-width: 0.8"/>
      </g>
     </g>
     <g id="text_7">
      <!-- 100 -->
      <g transform="translate(373.821435 322.074625) scale(0.1 -0.1)">
       <defs>
        <path id="IPAexGothic-31" d="M 2463 63 
L 1900 63 
L 1900 4103 
Q 1372 3922 788 3797 
L 684 4231 
Q 1519 4441 2106 4731 
L 2463 4731 
L 2463 63 
z
" transform="scale(0.015625)"/>
       </defs>
       <use xlink:href="#IPAexGothic-31"/>
       <use xlink:href="#IPAexGothic-30" transform="translate(62.988281 0)"/>
       <use xlink:href="#IPAexGothic-30" transform="translate(125.976562 0)"/>
      </g>
     </g>
    </g>
    <g id="text_8">
     <!-- 体重(kg) -->
     <g transform="translate(217.463906 336.163687) scale(0.1 -0.1)">
      <defs>
       <path id="IPAexGothic-4f53" d="M 4253 3481 
Q 4869 2069 6041 1138 
L 5688 703 
Q 4541 1841 4069 3122 
L 4069 1228 
L 4925 1228 
L 4925 831 
L 4081 831 
L 4081 -450 
L 3613 -450 
L 3613 831 
L 2781 831 
L 2781 1228 
L 3628 1228 
L 3628 3097 
Q 3216 1703 2063 556 
L 1706 928 
Q 2844 1875 3441 3481 
L 1969 3481 
L 1969 3897 
L 3613 3897 
L 3613 5209 
L 4081 5209 
L 4081 3897 
L 5872 3897 
L 5872 3481 
L 4253 3481 
z
M 1572 3700 
L 1572 -441 
L 1119 -441 
L 1119 2778 
Q 888 2363 550 1913 
L 300 2303 
Q 1219 3575 1591 5241 
L 2041 5125 
Q 1844 4356 1572 3700 
z
" transform="scale(0.015625)"/>
       <path id="IPAexGothic-91cd" d="M 2950 3284 
L 2950 3684 
L 481 3684 
L 481 4063 
L 2950 4063 
L 2950 4491 
L 2747 4478 
Q 2100 4431 1241 4400 
L 1038 4791 
Q 3488 4878 4903 5113 
L 5234 4734 
Q 4388 4600 3406 4522 
L 3406 4063 
L 5913 4063 
L 5913 3684 
L 3406 3684 
L 3406 3284 
L 5269 3284 
L 5269 1313 
L 3406 1313 
L 3406 884 
L 5594 884 
L 5594 519 
L 3406 519 
L 3406 84 
L 6009 84 
L 6009 -294 
L 384 -294 
L 384 84 
L 2950 84 
L 2950 519 
L 800 519 
L 800 884 
L 2950 884 
L 2950 1313 
L 1128 1313 
L 1128 3284 
L 2950 3284 
z
M 2963 2931 
L 1569 2931 
L 1569 2472 
L 2963 2472 
L 2963 2931 
z
M 3394 2931 
L 3394 2472 
L 4825 2472 
L 4825 2931 
L 3394 2931 
z
M 2963 2147 
L 1569 2147 
L 1569 1659 
L 2963 1659 
L 2963 2147 
z
M 3394 2147 
L 3394 1659 
L 4825 1659 
L 4825 2147 
L 3394 2147 
z
" transform="scale(0.015625)"/>
       <path id="IPAexGothic-28" d="M 1928 -1016 
L 1653 -1166 
Q 488 69 488 1875 
Q 488 3678 1653 4909 
L 1928 4763 
Q 1006 3522 1006 1881 
Q 1006 203 1928 -1016 
z
" transform="scale(0.015625)"/>
       <path id="IPAexGothic-6b" d="M 3244 63 
L 2578 63 
L 1484 1613 
L 1119 1259 
L 1119 63 
L 581 63 
L 581 4794 
L 1119 4794 
L 1119 1766 
L 2463 3250 
L 3153 3250 
L 1828 1925 
L 3244 63 
z
" transform="scale(0.015625)"/>
       <path id="IPAexGothic-67" d="M 1331 1150 
Q 1006 1122 1006 900 
Q 1006 613 1763 575 
L 2131 556 
Q 3303 497 3303 -294 
Q 3303 -700 2925 -959 
Q 2519 -1253 1794 -1253 
Q 1138 -1253 738 -1028 
Q 353 -809 353 -428 
Q 353 84 1075 247 
L 1075 269 
Q 506 413 506 778 
Q 506 1116 994 1297 
Q 456 1575 456 2181 
Q 456 2650 769 2963 
Q 1128 3322 1738 3322 
Q 2125 3322 2422 3153 
Q 2650 3453 3259 3463 
L 3259 3013 
Q 2838 3003 2703 2938 
Q 3034 2613 3034 2169 
Q 3034 1728 2734 1425 
Q 2400 1094 1813 1094 
Q 1563 1094 1331 1150 
z
M 1734 2919 
Q 1409 2919 1197 2706 
Q 988 2497 988 2181 
Q 988 1872 1184 1684 
Q 1397 1472 1756 1472 
Q 2094 1472 2297 1678 
Q 2503 1881 2503 2203 
Q 2503 2497 2297 2700 
Q 2081 2919 1734 2919 
z
M 1753 159 
Q 903 159 903 -366 
Q 903 -875 1800 -875 
Q 2378 -875 2638 -606 
Q 2772 -481 2772 -313 
Q 2772 159 1753 159 
z
" transform="scale(0.015625)"/>
       <path id="IPAexGothic-29" d="M 466 4909 
Q 1638 3672 1638 1875 
Q 1638 75 466 -1166 
L 191 -1016 
Q 1119 216 1119 1881 
Q 1119 3509 191 4763 
L 466 4909 
z
" transform="scale(0.015625)"/>
      </defs>
      <use xlink:href="#IPAexGothic-4f53"/>
      <use xlink:href="#IPAexGothic-91cd" transform="translate(100 0)"/>
      <use xlink:href="#IPAexGothic-28" transform="translate(200 0)"/>
      <use xlink:href="#IPAexGothic-6b" transform="translate(233.300781 0)"/>
      <use xlink:href="#IPAexGothic-67" transform="translate(285.107422 0)"/>
      <use xlink:href="#IPAexGothic-29" transform="translate(340.625 0)"/>
     </g>
    </g>
   </g>
   <g id="matplotlib.axis_2">
    <g id="ytick_1">
     <g id="line2d_15">
      <path d="M 57.6 282.973077 
L 414.72 282.973077 
" clip-path="url(#p2c13ec0bf8)" style="fill: none; stroke: #b0b0b0; stroke-width: 0.8; stroke-linecap: square"/>
     </g>
     <g id="line2d_16">
      <defs>
       <path id="m29155ca047" d="M 0 0 
L -3.5 0 
" style="stroke: #000000; stroke-width: 0.8"/>
      </defs>
      <g>
       <use xlink:href="#m29155ca047" x="57.6" y="282.973077" style="stroke: #000000; stroke-width: 0.8"/>
      </g>
     </g>
     <g id="text_9">
      <!-- 80 -->
      <g transform="translate(38.003125 286.718389) scale(0.1 -0.1)">
       <use xlink:href="#IPAexGothic-38"/>
       <use xlink:href="#IPAexGothic-30" transform="translate(62.988281 0)"/>
      </g>
     </g>
    </g>
    <g id="ytick_2">
     <g id="line2d_17">
      <path d="M 57.6 243.758534 
L 414.72 243.758534 
" clip-path="url(#p2c13ec0bf8)" style="fill: none; stroke: #b0b0b0; stroke-width: 0.8; stroke-linecap: square"/>
     </g>
     <g id="line2d_18">
      <g>
       <use xlink:href="#m29155ca047" x="57.6" y="243.758534" style="stroke: #000000; stroke-width: 0.8"/>
      </g>
     </g>
     <g id="text_10">
      <!-- 100 -->
      <g transform="translate(31.704688 247.503846) scale(0.1 -0.1)">
       <use xlink:href="#IPAexGothic-31"/>
       <use xlink:href="#IPAexGothic-30" transform="translate(62.988281 0)"/>
       <use xlink:href="#IPAexGothic-30" transform="translate(125.976562 0)"/>
      </g>
     </g>
    </g>
    <g id="ytick_3">
     <g id="line2d_19">
      <path d="M 57.6 204.543991 
L 414.72 204.543991 
" clip-path="url(#p2c13ec0bf8)" style="fill: none; stroke: #b0b0b0; stroke-width: 0.8; stroke-linecap: square"/>
     </g>
     <g id="line2d_20">
      <g>
       <use xlink:href="#m29155ca047" x="57.6" y="204.543991" style="stroke: #000000; stroke-width: 0.8"/>
      </g>
     </g>
     <g id="text_11">
      <!-- 120 -->
      <g transform="translate(31.704688 208.289303) scale(0.1 -0.1)">
       <defs>
        <path id="IPAexGothic-32" d="M 3659 63 
L 447 63 
L 447 594 
Q 825 1475 1894 2203 
L 2072 2322 
Q 2619 2697 2791 2906 
Q 2988 3153 2988 3444 
Q 2988 3772 2756 4003 
Q 2500 4259 2084 4259 
Q 1250 4259 991 3328 
L 497 3506 
Q 853 4725 2116 4725 
Q 2806 4725 3216 4316 
Q 3575 3947 3575 3425 
Q 3575 3038 3344 2722 
Q 3131 2416 2366 1938 
L 2231 1856 
Q 1256 1253 978 569 
L 3659 569 
L 3659 63 
z
" transform="scale(0.015625)"/>
       </defs>
       <use xlink:href="#IPAexGothic-31"/>
       <use xlink:href="#IPAexGothic-32" transform="translate(62.988281 0)"/>
       <use xlink:href="#IPAexGothic-30" transform="translate(125.976562 0)"/>
      </g>
     </g>
    </g>
    <g id="ytick_4">
     <g id="line2d_21">
      <path d="M 57.6 165.329448 
L 414.72 165.329448 
" clip-path="url(#p2c13ec0bf8)" style="fill: none; stroke: #b0b0b0; stroke-width: 0.8; stroke-linecap: square"/>
     </g>
     <g id="line2d_22">
      <g>
       <use xlink:href="#m29155ca047" x="57.6" y="165.329448" style="stroke: #000000; stroke-width: 0.8"/>
      </g>
     </g>
     <g id="text_12">
      <!-- 140 -->
      <g transform="translate(31.704688 169.07476) scale(0.1 -0.1)">
       <use xlink:href="#IPAexGothic-31"/>
       <use xlink:href="#IPAexGothic-34" transform="translate(62.988281 0)"/>
       <use xlink:href="#IPAexGothic-30" transform="translate(125.976562 0)"/>
      </g>
     </g>
    </g>
    <g id="ytick_5">
     <g id="line2d_23">
      <path d="M 57.6 126.114905 
L 414.72 126.114905 
" clip-path="url(#p2c13ec0bf8)" style="fill: none; stroke: #b0b0b0; stroke-width: 0.8; stroke-linecap: square"/>
     </g>
     <g id="line2d_24">
      <g>
       <use xlink:href="#m29155ca047" x="57.6" y="126.114905" style="stroke: #000000; stroke-width: 0.8"/>
      </g>
     </g>
     <g id="text_13">
      <!-- 160 -->
      <g transform="translate(31.704688 129.860217) scale(0.1 -0.1)">
       <use xlink:href="#IPAexGothic-31"/>
       <use xlink:href="#IPAexGothic-36" transform="translate(62.988281 0)"/>
       <use xlink:href="#IPAexGothic-30" transform="translate(125.976562 0)"/>
      </g>
     </g>
    </g>
    <g id="ytick_6">
     <g id="line2d_25">
      <path d="M 57.6 86.900362 
L 414.72 86.900362 
" clip-path="url(#p2c13ec0bf8)" style="fill: none; stroke: #b0b0b0; stroke-width: 0.8; stroke-linecap: square"/>
     </g>
     <g id="line2d_26">
      <g>
       <use xlink:href="#m29155ca047" x="57.6" y="86.900362" style="stroke: #000000; stroke-width: 0.8"/>
      </g>
     </g>
     <g id="text_14">
      <!-- 180 -->
      <g transform="translate(31.704688 90.645674) scale(0.1 -0.1)">
       <use xlink:href="#IPAexGothic-31"/>
       <use xlink:href="#IPAexGothic-38" transform="translate(62.988281 0)"/>
       <use xlink:href="#IPAexGothic-30" transform="translate(125.976562 0)"/>
      </g>
     </g>
    </g>
    <g id="ytick_7">
     <g id="line2d_27">
      <path d="M 57.6 47.685819 
L 414.72 47.685819 
" clip-path="url(#p2c13ec0bf8)" style="fill: none; stroke: #b0b0b0; stroke-width: 0.8; stroke-linecap: square"/>
     </g>
     <g id="line2d_28">
      <g>
       <use xlink:href="#m29155ca047" x="57.6" y="47.685819" style="stroke: #000000; stroke-width: 0.8"/>
      </g>
     </g>
     <g id="text_15">
      <!-- 200 -->
      <g transform="translate(31.704688 51.431131) scale(0.1 -0.1)">
       <use xlink:href="#IPAexGothic-32"/>
       <use xlink:href="#IPAexGothic-30" transform="translate(62.988281 0)"/>
       <use xlink:href="#IPAexGothic-30" transform="translate(125.976562 0)"/>
      </g>
     </g>
    </g>
    <g id="text_16">
     <!-- 身長(cm) -->
     <g transform="translate(25.804688 194.932687) rotate(-90) scale(0.1 -0.1)">
      <defs>
       <path id="IPAexGothic-8eab" d="M 4456 1503 
Q 3147 375 941 -403 
L 641 6 
Q 2784 628 4013 1644 
Q 2666 1425 666 1284 
L 531 1741 
L 953 1759 
L 1063 1766 
L 1441 1791 
L 1441 4691 
L 2559 4691 
Q 2709 5038 2784 5356 
L 3322 5278 
Q 3188 4969 3034 4691 
L 4878 4691 
L 4878 2481 
Q 5256 2928 5600 3488 
L 6003 3213 
Q 5528 2522 4903 1913 
L 4903 72 
Q 4903 -244 4744 -356 
Q 4619 -453 4309 -453 
Q 3859 -453 3366 -409 
L 3263 78 
Q 3850 0 4244 0 
Q 4456 0 4456 206 
L 4456 1503 
z
M 4425 2022 
L 4425 2469 
L 1881 2469 
L 1881 1816 
L 2106 1828 
Q 3641 1925 4425 2022 
z
M 4425 2853 
L 4425 3384 
L 1881 3384 
L 1881 2853 
L 4425 2853 
z
M 4425 3769 
L 4425 4300 
L 1881 4300 
L 1881 3769 
L 4425 3769 
z
" transform="scale(0.015625)"/>
       <path id="IPAexGothic-9577" d="M 1913 4581 
L 1913 4128 
L 5131 4128 
L 5131 3744 
L 1913 3744 
L 1913 3284 
L 5131 3284 
L 5131 2900 
L 1913 2900 
L 1913 2413 
L 6041 2413 
L 6041 2016 
L 3384 2016 
Q 3603 1503 4063 1063 
Q 4709 1478 5259 1984 
L 5650 1709 
Q 4950 1134 4378 788 
Q 5044 272 6066 6 
L 5766 -409 
Q 3613 259 2931 2016 
L 1913 2016 
L 1913 269 
Q 2741 466 3409 666 
L 3450 281 
Q 2244 -131 769 -456 
L 575 -6 
Q 1447 159 1453 159 
L 1453 2016 
L 353 2016 
L 353 2413 
L 1453 2413 
L 1453 4978 
L 5356 4978 
L 5356 4581 
L 1913 4581 
z
" transform="scale(0.015625)"/>
       <path id="IPAexGothic-63" d="M 3269 784 
Q 2834 -31 1900 -31 
Q 1228 -31 788 409 
Q 313 891 313 1663 
Q 313 2428 788 2913 
Q 1222 3347 1881 3347 
Q 2813 3347 3206 2541 
L 2763 2309 
Q 2484 2900 1900 2900 
Q 1516 2900 1234 2619 
Q 881 2266 881 1650 
Q 881 1069 1222 728 
Q 1522 428 1956 428 
Q 2547 428 2847 1016 
L 3269 784 
z
" transform="scale(0.015625)"/>
       <path id="IPAexGothic-6d" d="M 5022 63 
L 4472 63 
L 4472 2059 
Q 4472 2869 3847 2869 
Q 3550 2869 3303 2594 
Q 3128 2397 3059 2103 
L 3059 63 
L 2509 63 
L 2509 2066 
Q 2509 2869 1919 2869 
Q 1606 2869 1369 2594 
Q 1113 2306 1113 2041 
L 1113 63 
L 563 63 
L 563 3250 
L 1075 3250 
L 1075 2700 
Q 1391 3316 2028 3316 
Q 2725 3316 2956 2647 
Q 3303 3316 3953 3316 
Q 4478 3316 4772 2944 
Q 5022 2638 5022 2072 
L 5022 63 
z
" transform="scale(0.015625)"/>
      </defs>
      <use xlink:href="#IPAexGothic-8eab"/>
      <use xlink:href="#IPAexGothic-9577" transform="translate(100 0)"/>
      <use xlink:href="#IPAexGothic-28" transform="translate(200 0)"/>
      <use xlink:href="#IPAexGothic-63" transform="translate(233.300781 0)"/>
      <use xlink:href="#IPAexGothic-6d" transform="translate(287.695312 0)"/>
      <use xlink:href="#IPAexGothic-29" transform="translate(374.804688 0)"/>
     </g>
    </g>
   </g>
   <g id="line2d_29">
    <path d="M 73.832727 295.488 
L 398.487273 58.711443 
" clip-path="url(#p2c13ec0bf8)" style="fill: none; stroke: #ff0000; stroke-width: 1.5; stroke-linecap: square"/>
   </g>
   <g id="patch_3">
    <path d="M 57.6 307.584 
L 57.6 41.472 
" style="fill: none; stroke: #000000; stroke-width: 0.8; stroke-linejoin: miter; stroke-linecap: square"/>
   </g>
   <g id="patch_4">
    <path d="M 414.72 307.584 
L 414.72 41.472 
" style="fill: none; stroke: #000000; stroke-width: 0.8; stroke-linejoin: miter; stroke-linecap: square"/>
   </g>
   <g id="patch_5">
    <path d="M 57.6 307.584 
L 414.72 307.584 
" style="fill: none; stroke: #000000; stroke-width: 0.8; stroke-linejoin: miter; stroke-linecap: square"/>
   </g>
   <g id="patch_6">
    <path d="M 57.6 41.472 
L 414.72 41.472 
" style="fill: none; stroke: #000000; stroke-width: 0.8; stroke-linejoin: miter; stroke-linecap: square"/>
   </g>
   <g id="text_17">
    <!-- 体重と身長の散布図と線形モデル -->
    <g transform="translate(146.16 35.472) scale(0.12 -0.12)">
     <defs>
      <path id="IPAexGothic-3068" d="M 5222 56 
Q 4200 -72 3450 -72 
Q 2478 -72 1941 113 
Q 1184 372 1184 1038 
Q 1184 1584 1594 2009 
Q 1941 2369 2656 2725 
Q 2231 3734 1972 4878 
L 2491 4978 
Q 2706 3884 3078 2950 
Q 4250 3447 4756 3616 
L 4978 3150 
Q 3181 2575 2409 2078 
Q 1691 1613 1691 1113 
Q 1691 403 3322 403 
Q 4125 403 5134 563 
L 5222 56 
z
" transform="scale(0.015625)"/>
      <path id="IPAexGothic-306e" d="M 3119 469 
Q 5275 766 5275 2425 
Q 5275 3453 4413 3925 
Q 4041 4116 3547 4159 
Q 3394 2525 2850 1400 
Q 2322 306 1722 306 
Q 1384 306 1084 666 
Q 609 1244 609 2003 
Q 609 3025 1397 3794 
Q 2184 4563 3431 4563 
Q 4306 4563 4928 4122 
Q 5813 3506 5813 2425 
Q 5813 438 3431 6 
L 3119 469 
z
M 3053 4147 
Q 2378 4044 1891 3641 
Q 1097 2981 1097 1991 
Q 1097 1366 1434 978 
Q 1581 813 1719 813 
Q 2022 813 2416 1625 
Q 2909 2638 3053 4147 
z
" transform="scale(0.015625)"/>
      <path id="IPAexGothic-6563" d="M 4484 1197 
Q 4041 1978 3878 2719 
Q 3700 2313 3525 2016 
L 3256 2400 
Q 3816 3469 4056 5284 
L 4491 5197 
Q 4400 4594 4313 4191 
L 5991 4191 
L 5991 3769 
L 5541 3769 
Q 5534 3750 5534 3697 
Q 5459 2300 4966 1216 
Q 5478 475 6150 56 
L 5844 -391 
Q 5250 78 4741 794 
Q 4309 53 3550 -494 
L 3256 -103 
Q 3984 309 4484 1197 
z
M 4703 1644 
Q 5019 2469 5106 3769 
L 4209 3769 
Q 4194 3688 4109 3403 
Q 4241 2519 4703 1644 
z
M 1150 4513 
L 1150 5313 
L 1572 5313 
L 1572 4513 
L 2253 4513 
L 2253 5313 
L 2669 5313 
L 2669 4513 
L 3334 4513 
L 3334 4141 
L 2669 4141 
L 2669 3450 
L 3463 3450 
L 3463 3078 
L 306 3078 
L 306 3450 
L 1150 3450 
L 1150 4141 
L 484 4141 
L 484 4513 
L 1150 4513 
z
M 2253 4141 
L 1572 4141 
L 1572 3450 
L 2253 3450 
L 2253 4141 
z
M 3019 2669 
L 3019 63 
Q 3019 -194 2909 -281 
Q 2803 -378 2488 -378 
Q 2250 -378 1944 -347 
L 1863 97 
Q 2128 31 2394 31 
Q 2609 31 2609 238 
L 2609 744 
L 1203 744 
L 1203 -447 
L 800 -447 
L 800 2669 
L 3019 2669 
z
M 1203 2303 
L 1203 1881 
L 2609 1881 
L 2609 2303 
L 1203 2303 
z
M 1203 1528 
L 1203 1097 
L 2609 1097 
L 2609 1528 
L 1203 1528 
z
" transform="scale(0.015625)"/>
      <path id="IPAexGothic-5e03" d="M 3228 2741 
L 3228 3584 
L 3688 3584 
L 3688 2741 
L 5500 2741 
L 5500 750 
Q 5500 475 5353 369 
Q 5228 272 4900 272 
Q 4625 272 4269 291 
L 4188 775 
Q 4600 713 4834 713 
Q 5047 713 5047 956 
L 5047 2325 
L 3688 2325 
L 3688 -447 
L 3228 -447 
L 3228 2325 
L 2056 2325 
L 2056 91 
L 1603 91 
L 1603 2228 
Q 1159 1747 622 1313 
L 303 1691 
Q 1544 2625 2144 3847 
L 516 3847 
L 516 4275 
L 2338 4275 
Q 2506 4684 2656 5228 
L 3150 5153 
Q 2988 4581 2856 4275 
L 5984 4275 
L 5984 3847 
L 2669 3847 
Q 2369 3231 2009 2741 
L 3228 2741 
z
" transform="scale(0.015625)"/>
      <path id="IPAexGothic-56f3" d="M 3375 1428 
Q 2606 747 1625 447 
L 1356 831 
Q 2297 1091 2966 1631 
L 2791 1709 
Q 2138 2022 1338 2328 
L 1575 2669 
Q 2356 2375 3297 1941 
Q 4069 2759 4422 4178 
L 4853 4013 
Q 4456 2588 3694 1747 
Q 4313 1434 5000 1050 
L 4706 666 
Q 4113 1041 3431 1394 
L 3375 1428 
z
M 2131 2681 
Q 1897 3466 1625 3903 
L 2038 4084 
Q 2331 3563 2559 2869 
L 2131 2681 
z
M 3169 2834 
Q 2934 3603 2663 4056 
L 3059 4225 
Q 3366 3728 3597 3022 
L 3169 2834 
z
M 5769 4984 
L 5769 -447 
L 5300 -447 
L 5300 -128 
L 1097 -128 
L 1097 -447 
L 628 -447 
L 628 4984 
L 5769 4984 
z
M 1097 4575 
L 1097 275 
L 5300 275 
L 5300 4575 
L 1097 4575 
z
" transform="scale(0.015625)"/>
      <path id="IPAexGothic-7dda" d="M 1247 3078 
Q 838 3659 378 4122 
L 666 4428 
Q 788 4306 916 4153 
Q 1281 4681 1541 5331 
L 1956 5119 
Q 1553 4391 1156 3866 
Q 1394 3547 1478 3419 
Q 1863 3991 2156 4550 
L 2541 4313 
Q 1859 3213 1319 2572 
Q 1700 2581 2266 2631 
Q 2169 2872 2016 3150 
L 2366 3303 
Q 2675 2750 2884 2106 
L 2500 1919 
Q 2494 1947 2378 2322 
Q 2147 2281 1791 2234 
L 1791 -447 
L 1369 -447 
L 1369 2181 
Q 975 2134 428 2106 
L 281 2534 
Q 722 2544 863 2553 
Q 947 2666 1247 3078 
z
M 4678 1553 
L 4678 25 
Q 4678 -231 4569 -319 
Q 4472 -397 4225 -397 
Q 3991 -397 3725 -366 
L 3659 56 
Q 3891 13 4122 13 
Q 4275 13 4275 184 
L 4275 2444 
L 3116 2444 
L 3116 4691 
L 4019 4691 
Q 4091 4934 4178 5356 
L 4647 5278 
Q 4506 4884 4416 4691 
L 5772 4691 
L 5772 2444 
L 4697 2444 
Q 4803 1978 5025 1594 
Q 5416 1984 5644 2316 
L 6003 2047 
Q 5578 1584 5216 1288 
Q 5609 738 6213 269 
L 5938 -116 
Q 5056 606 4678 1553 
z
M 3531 4331 
L 3531 3756 
L 5356 3756 
L 5356 4331 
L 3531 4331 
z
M 3531 3403 
L 3531 2803 
L 5356 2803 
L 5356 3403 
L 3531 3403 
z
M 353 206 
Q 566 769 653 1759 
L 1063 1709 
Q 984 678 769 -13 
L 353 206 
z
M 2322 428 
Q 2222 1150 2009 1759 
L 2375 1869 
Q 2581 1366 2738 616 
L 2322 428 
z
M 2834 1925 
L 3950 1925 
L 4153 1747 
Q 3781 534 2878 -231 
L 2578 69 
Q 3359 666 3666 1541 
L 2834 1541 
L 2834 1925 
z
" transform="scale(0.015625)"/>
      <path id="IPAexGothic-5f62" d="M 2856 4488 
L 2856 2859 
L 3744 2859 
L 3744 2456 
L 2875 2456 
L 2875 -384 
L 2434 -384 
L 2434 2456 
L 1653 2456 
L 1653 2394 
Q 1653 1425 1466 759 
Q 1266 59 756 -525 
L 425 -181 
Q 1213 666 1213 2341 
L 1213 2456 
L 322 2456 
L 322 2859 
L 1213 2859 
L 1213 4488 
L 481 4488 
L 481 4891 
L 3609 4891 
L 3609 4488 
L 2856 4488 
z
M 2416 4488 
L 1653 4488 
L 1653 2859 
L 2416 2859 
L 2416 4488 
z
M 3369 6 
Q 4859 738 5728 2203 
L 6144 1966 
Q 5216 403 3688 -384 
L 3369 6 
z
M 3334 3425 
Q 4566 4031 5197 5141 
L 5634 4909 
Q 4872 3697 3650 3066 
L 3334 3425 
z
M 3303 1728 
Q 4684 2331 5472 3706 
L 5888 3481 
Q 5025 2031 3609 1338 
L 3303 1728 
z
" transform="scale(0.015625)"/>
      <path id="IPAexGothic-30e2" d="M 1216 4409 
L 5147 4409 
L 5147 3950 
L 3053 3950 
L 3053 2797 
L 5644 2797 
L 5644 2328 
L 3053 2328 
L 3053 972 
Q 3053 669 3272 600 
Q 3453 544 4013 544 
Q 4556 544 5269 600 
L 5269 97 
Q 4684 50 4147 50 
Q 3025 50 2753 250 
Q 2541 403 2541 825 
L 2541 2328 
L 744 2328 
L 744 2797 
L 2541 2797 
L 2541 3950 
L 1216 3950 
L 1216 4409 
z
" transform="scale(0.015625)"/>
      <path id="IPAexGothic-30c7" d="M 563 3072 
L 5741 3072 
L 5741 2613 
L 3578 2613 
Q 3538 1516 3134 872 
Q 2688 156 1663 -256 
L 1313 156 
Q 2338 538 2713 1166 
Q 3003 1644 3034 2613 
L 563 2613 
L 563 3072 
z
M 1406 4588 
L 4588 4588 
L 4588 4128 
L 1406 4128 
L 1406 4588 
z
M 6009 4469 
Q 5647 5009 5253 5338 
L 5553 5569 
Q 5938 5259 6328 4744 
L 6009 4469 
z
M 5413 4000 
Q 5125 4491 4678 4891 
L 4991 5131 
Q 5363 4825 5747 4275 
L 5413 4000 
z
" transform="scale(0.015625)"/>
      <path id="IPAexGothic-30eb" d="M 353 331 
Q 1313 994 1544 2022 
Q 1684 2650 1684 4397 
L 2203 4397 
L 2203 4153 
L 2203 4116 
Q 2203 2259 1934 1491 
Q 1619 588 744 -38 
L 353 331 
z
M 3125 4666 
L 3650 4666 
L 3650 769 
Q 4875 1488 5672 2734 
L 6000 2278 
Q 5075 966 3516 63 
L 3125 359 
L 3125 4666 
z
" transform="scale(0.015625)"/>
     </defs>
     <use xlink:href="#IPAexGothic-4f53"/>
     <use xlink:href="#IPAexGothic-91cd" transform="translate(100 0)"/>
     <use xlink:href="#IPAexGothic-3068" transform="translate(200 0)"/>
     <use xlink:href="#IPAexGothic-8eab" transform="translate(300 0)"/>
     <use xlink:href="#IPAexGothic-9577" transform="translate(400 0)"/>
     <use xlink:href="#IPAexGothic-306e" transform="translate(500 0)"/>
     <use xlink:href="#IPAexGothic-6563" transform="translate(600 0)"/>
     <use xlink:href="#IPAexGothic-5e03" transform="translate(700 0)"/>
     <use xlink:href="#IPAexGothic-56f3" transform="translate(800 0)"/>
     <use xlink:href="#IPAexGothic-3068" transform="translate(900 0)"/>
     <use xlink:href="#IPAexGothic-7dda" transform="translate(1000 0)"/>
     <use xlink:href="#IPAexGothic-5f62" transform="translate(1100 0)"/>
     <use xlink:href="#IPAexGothic-30e2" transform="translate(1200 0)"/>
     <use xlink:href="#IPAexGothic-30c7" transform="translate(1300 0)"/>
     <use xlink:href="#IPAexGothic-30eb" transform="translate(1400 0)"/>
    </g>
   </g>
  </g>
 </g>
 <defs>
  <clipPath id="p2c13ec0bf8">
   <rect x="57.6" y="41.472" width="357.12" height="266.112"/>
  </clipPath>
 </defs>
</svg>
